# xmcd
#
# Track frame offsets: 
#        150
#        19361
#        38216
#        52423
#        72815
#        98694
#        121530
#        142751
#        160220
#        175933
#        202192
#        213889
#        233710
#        252316
#        271449
#        288699
#        306591
#
# Disc length: 4277 seconds
#
# Revision: 1
# Processed by: cddbd v1.5.2PL0 Copyright (c) Steve Scherf et al.
# Submitted via: ExactAudioCopyFreeDBPlugin 1.0
#
DISCID=0010b311
DTITLE=Various Artist - Americana - CD2: Originele Opnames
DYEAR=2006
DGENRE=Americana
TTITLE0=Shelby Lynne - I Cry Everyday
TTITLE1=Bright Eyes - We Are Nowhere And It's Now
TTITLE2=Josh Rouse - Winter In The Hamptons
TTITLE3=John Coinman - Down In Nogales
TTITLE4=Cowboy Junkies - He Will Call You Baby
TTITLE5=Kathleen Edwards - Copied Keys
TTITLE6=Rodney Crowell - Glasgow Girl
TTITLE7=Lucinda Williams - Blue
TTITLE8=Jack Johnson - Good People
TTITLE9=Mary Gauthier - Mercy Now
TTITLE10=Whiskeytown - Houses On The Hill
TTITLE11=Tift Merritt - Ain't Looking Closely
TTITLE12=Poco - Running Horse
TTITLE13=Steve Forbert - Wild As The Wind
TTITLE14=Ad van der Veen - New World In The Morning
TTITLE15=Crosby and Nash - Through Here Quite Often
TTITLE16=Alison Krauss - Wouldn't Be So Bad
EXTD=J.D. Kroeske presents AMERICANA - 2CD\nCD1: 2 Meter Sessies\nCD2:
EXTD=Originele Opnames
EXTT0=
EXTT1=
EXTT2=
EXTT3=
EXTT4=
EXTT5=
EXTT6=
EXTT7=
EXTT8=
EXTT9=
EXTT10=
EXTT11=
EXTT12=
EXTT13=
EXTT14=
EXTT15=
EXTT16=
PLAYORDER=
